<svg width="217" height="66" viewBox="0 0 217 66" fill="none" xmlns="http://www.w3.org/2000/svg">
<path d="M74.1625 32.5676C74.1051 30.995 74.3679 29.4271 74.9352 27.958C75.5025 26.4888 76.3627 25.149 77.4639 24.0188C78.5651 22.8885 79.8846 21.9912 81.3433 21.3808C82.8021 20.7703 84.3699 20.4593 85.9525 20.4664C91.9158 20.4664 95.4453 23.9454 96.5102 28.0297L92.7678 29.2851C92.4385 27.7625 91.568 26.4088 90.3164 25.4725C89.0645 24.5361 87.5151 24.08 85.9525 24.1875C82.0884 24.1875 78.2244 26.9859 78.2244 32.6432C78.2244 38.3005 81.9972 40.993 85.998 40.993C87.5693 41.0383 89.1105 40.5576 90.3741 39.6276C91.6376 38.6976 92.5502 37.3726 92.9656 35.8651L96.6014 37.0451C95.979 39.3466 94.5831 41.3669 92.6458 42.7704C90.7086 44.1738 88.3465 44.8757 85.9525 44.7594C84.3556 44.7891 82.7697 44.4906 81.2944 43.8822C79.8191 43.2738 78.4861 42.369 77.3793 41.2242C76.2723 40.0795 75.4151 38.7196 74.8616 37.2299C74.308 35.7403 74.0701 34.153 74.1625 32.5676Z" fill="white"/>
<path d="M103.812 44.1997H99.9788V20.4058H103.812V29.7388C104.371 29.0822 105.071 28.5602 105.862 28.2118C106.652 27.8633 107.512 27.6976 108.376 27.727C112.347 27.727 114.263 30.5556 114.263 34.0801V44.1997H110.536V34.7305C110.606 34.27 110.571 33.7995 110.433 33.3543C110.295 32.9092 110.058 32.5007 109.739 32.1591C109.42 31.8178 109.028 31.552 108.592 31.3816C108.156 31.2115 107.687 31.141 107.22 31.1759C106.756 31.1762 106.298 31.2724 105.874 31.4581C105.449 31.6441 105.068 31.9155 104.755 32.2555C104.442 32.5953 104.203 32.9961 104.054 33.4328C103.905 33.8693 103.848 34.3318 103.888 34.7911L103.812 44.1997Z" fill="white"/>
<path d="M122.828 35.0327L126.951 34.3974C127.879 34.2763 128.138 33.8074 128.138 33.2477C128.138 31.9015 127.225 30.8123 125.095 30.8123C124.684 30.7773 124.271 30.8256 123.88 30.9541C123.488 31.0829 123.127 31.2892 122.818 31.5608C122.51 31.8324 122.26 32.1635 122.084 32.5341C121.908 32.9047 121.809 33.307 121.794 33.7166L118.295 32.93C118.584 30.162 121.109 27.6963 125.065 27.6963C130.024 27.6963 131.91 30.4947 131.91 33.7469V41.6883C131.902 42.5496 131.968 43.41 132.108 44.2597H128.533C128.41 43.5863 128.359 42.9018 128.381 42.2178C127.847 43.0316 127.109 43.6927 126.239 44.1358C125.369 44.5788 124.398 44.7884 123.422 44.7438C122.741 44.7994 122.056 44.7172 121.408 44.5023C120.761 44.2873 120.163 43.9438 119.653 43.4928C119.142 43.0417 118.729 42.4924 118.438 41.8781C118.147 41.2637 117.985 40.5971 117.96 39.9185C117.96 36.9991 120.075 35.426 122.828 35.0327ZM128.138 37.6041V36.8781L123.939 37.4982C123.368 37.5177 122.827 37.7548 122.428 38.1603C122.028 38.5659 121.801 39.1088 121.794 39.6765C121.799 39.9695 121.865 40.2583 121.988 40.5246C122.11 40.7911 122.288 41.0291 122.508 41.2239C122.728 41.4187 122.987 41.566 123.267 41.6563C123.547 41.7466 123.843 41.7781 124.137 41.7487C124.691 41.805 125.25 41.7349 125.773 41.5438C126.296 41.353 126.768 41.0459 127.154 40.6465C127.539 40.247 127.828 39.7654 127.999 39.2382C128.169 38.7111 128.217 38.1523 128.138 37.6041Z" fill="white"/>
<path d="M138.421 20.0729C138.754 20.0689 139.083 20.1305 139.391 20.2543C139.7 20.3779 139.98 20.5609 140.216 20.7933C140.452 21.0254 140.64 21.3018 140.768 21.6067C140.896 21.9114 140.962 22.2385 140.962 22.5689C140.962 23.2267 140.699 23.8578 140.231 24.3229C139.763 24.7882 139.129 25.0496 138.467 25.0496C137.805 25.0496 137.171 24.7882 136.703 24.3229C136.235 23.8578 135.972 23.2267 135.972 22.5689C135.972 21.9173 136.228 21.2913 136.686 20.8249C137.143 20.3587 137.766 20.0887 138.421 20.0729ZM136.55 44.2752V28.1959H140.338V44.1996L136.55 44.2752Z" fill="white"/>
<path d="M149.132 44.1993H145.298V28.1956H149.04V30.3283C149.526 29.5096 150.224 28.8358 151.062 28.3781C151.9 27.9202 152.846 27.6952 153.802 27.7265C157.727 27.7265 159.613 30.5552 159.613 34.0797V44.1993H155.78V34.7301C155.78 32.7637 154.882 31.1754 152.478 31.1754C152 31.1783 151.527 31.2818 151.092 31.4791C150.657 31.6764 150.268 31.963 149.952 32.32C149.636 32.6771 149.4 33.0968 149.258 33.5513C149.117 34.0057 149.074 34.4848 149.132 34.9571V44.1993Z" fill="white"/>
<path d="M164.283 44.1997V20.4058H168.117V44.1997H164.283Z" fill="white"/>
<path d="M174.963 20.0728C175.629 20.0728 176.267 20.3357 176.738 20.8039C177.209 21.2719 177.473 21.9066 177.473 22.5687C177.469 23.0579 177.321 23.5355 177.046 23.9411C176.771 24.3468 176.381 24.6623 175.926 24.8483C175.47 25.0342 174.97 25.082 174.487 24.9858C174.005 24.8895 173.562 24.6537 173.214 24.3075C172.866 23.9615 172.629 23.521 172.532 23.0411C172.435 22.5613 172.483 22.0639 172.67 21.6111C172.857 21.1585 173.175 20.7709 173.583 20.4972C173.99 20.2234 174.471 20.0758 174.963 20.0728ZM173.076 44.275V28.1957H176.879V44.1994L173.076 44.275Z" fill="white"/>
<path d="M185.673 44.1994H181.839V28.1957H185.567V30.3285C186.054 29.5119 186.753 28.8401 187.591 28.3825C188.428 27.925 189.374 27.6987 190.328 27.7267C194.268 27.7267 196.153 30.5553 196.153 34.0799V44.1994H192.32V34.7302C192.391 34.2697 192.355 33.7992 192.217 33.3541C192.079 32.9089 191.842 32.5004 191.523 32.1588C191.204 31.8175 190.813 31.5517 190.376 31.3813C189.94 31.2112 189.471 31.1407 189.003 31.1756C188.527 31.1783 188.054 31.2817 187.621 31.4791C187.185 31.6765 186.797 31.9634 186.482 32.3209C186.167 32.6782 185.933 33.098 185.793 33.5525C185.653 34.0071 185.613 34.4857 185.673 34.9572V44.1994Z" fill="white"/>
<path d="M209.267 34.9575L216.022 44.1997H211.321L206.59 37.6045L204.612 39.6769V44.2148H200.808V20.4058H204.612V34.67L210.79 28.196H215.886L209.267 34.9575Z" fill="white"/>
<path d="M28.737 13.9768L45.319 23.4458V42.4597L28.7826 51.9895L12.2007 42.5355V23.5214L28.737 13.9768ZM28.737 0L22.6519 3.50932L6.08513 13.0541L0 16.5634V23.5517V42.5505V49.5388L6.08513 53.018L22.6671 62.4871L28.7522 65.9661L34.8375 62.4568L51.3738 52.9121L57.4589 49.4179V42.4296V23.4156V16.4272L51.3738 12.9482L34.7918 3.47907L28.7067 0H28.737Z" fill="white"/>
</svg>
