<svg width="56" height="57" viewBox="0 0 56 57" fill="none" xmlns="http://www.w3.org/2000/svg">
<path fill-rule="evenodd" clip-rule="evenodd" d="M0 27.8612C0 43.4012 12.6 56.0012 28 56.0012C43.4 56.0012 55.86 43.5412 56 28.2812C56 12.6012 43.54 0.141155 28.14 0.0011555C12.6 -0.138845 0.14 12.4612 0 27.8612ZM29.82 29.1211L30.66 24.6411L38.08 25.7611L38.64 23.6611L30.94 22.5411C31.3984 21.1004 31.7956 19.6596 32.1887 18.2333C32.6361 16.6103 33.0784 15.0058 33.6 13.4411C34.02 12.4611 34.72 11.4811 35.42 10.7811C36.4 9.80107 37.66 9.94107 38.5 11.0611C38.71 11.2711 38.885 11.4811 39.06 11.6911C39.235 11.9011 39.41 12.1111 39.62 12.3211C40.18 12.8811 40.88 13.0211 41.44 12.6011C41.86 12.1811 41.86 11.4811 41.86 10.9211C41.86 10.6411 41.58 10.3611 41.44 10.2211C40.6 9.24107 39.34 8.82107 38.08 8.82107C35.14 8.68107 33.18 10.0811 31.5 12.3211C29.82 14.5611 29.12 17.0811 28.42 19.6011C28.2569 20.0089 28.1413 20.4167 28.0178 20.8522C27.9294 21.1642 27.8369 21.4904 27.72 21.8411L19.46 20.7211L19.18 22.9611L27.16 24.2211L26.18 28.5611L18.48 27.4411L18.2 29.5411L25.62 30.6611V31.2211C25.0372 34.0185 24.3574 36.7189 23.6613 39.4838C23.5213 40.0398 23.3806 40.5985 23.24 41.1611C22.82 42.7011 22.12 44.2411 20.86 45.3611C19.74 46.2011 18.62 46.0611 17.78 44.9411C17.5 44.3811 17.08 43.8211 16.66 43.4011C16.24 43.2611 15.54 43.1211 15.26 43.2611C14.84 43.5411 14.56 44.2411 14.56 44.8011C14.56 45.2211 14.98 45.7811 15.4 46.0611C16.66 47.0411 18.34 47.1811 19.88 46.9011C22.54 46.4811 24.5 44.8011 25.62 42.4211C26.46 40.6011 27.16 38.6411 27.86 36.6811C28.2859 35.659 28.5563 34.5332 28.8289 33.3984C29.0043 32.668 29.1807 31.9338 29.4 31.2211L37.24 32.3411L37.8 30.2411L29.82 29.1211Z" fill="white"/>
</svg>
