<svg width="159" height="66" viewBox="0 0 159 66" fill="none" xmlns="http://www.w3.org/2000/svg">
<path d="M26.7143 3.50412L50.5981 18.2691V47.7649L26.7143 62.5299L2.83044 47.7649V18.2351L26.7143 3.50412ZM26.7143 0L0 16.5V49.5L26.7143 66L53.4286 49.5V16.5L26.7143 0Z" fill="white"/>
<path d="M50.8095 17.2856L27.2381 32.4761L2.61902 17.8095M26.7143 63.3809V34.5714" stroke="white" stroke-width="3"/>
<path d="M67.0476 14.4761H72.7681V50.4395H67.0476V14.4761ZM78.4886 14.4761H90.1546C92.6935 14.4761 94.8146 14.7843 96.4536 15.3666C98.0926 15.9488 99.4103 16.7709 100.342 17.7984C101.267 18.7696 101.952 19.9699 102.335 21.292C102.722 22.6346 102.917 24.0317 102.913 25.4364C102.919 26.931 102.725 28.4189 102.335 29.8547C101.955 31.2385 101.272 32.5063 100.342 33.5538C99.2469 34.6993 97.9152 35.5556 96.4536 36.0541C94.8146 36.6707 92.7578 36.9789 90.251 36.9789H84.1127V50.4395H78.4886V14.4761ZM90.1225 31.944C91.3256 31.982 92.5274 31.8319 93.6898 31.4988C94.5031 31.2695 95.2527 30.8348 95.8751 30.2315C96.4042 29.6835 96.7916 28.9992 96.9999 28.2449C97.212 27.3956 97.32 26.5207 97.3213 25.6419C97.3402 24.7505 97.2319 23.8612 96.9999 23.0045C96.7863 22.2741 96.3856 21.6217 95.843 21.1207C95.1961 20.5586 94.4379 20.1604 93.6255 19.9562C92.48 19.655 91.302 19.5168 90.1225 19.5452H84.177V31.944H90.1225ZM128.656 14.4761V19.7164H112.844V29.889H127.724V35.1636H112.844V50.4395H107.123V14.4761H128.656ZM137.076 39.445C137.333 41.8083 138.136 43.5208 139.454 44.5826C140.771 45.6444 142.796 46.1924 145.431 46.1924C146.529 46.2261 147.624 46.0758 148.677 45.7472C149.447 45.4893 150.166 45.0829 150.798 44.5484C151.315 44.0714 151.703 43.4567 151.923 42.7673C152.147 42.0615 152.256 41.3201 152.245 40.5753C152.251 40.0068 152.175 39.4407 152.02 38.897C151.842 38.328 151.558 37.8035 151.184 37.3557C150.716 36.8378 150.16 36.4194 149.545 36.1226C148.701 35.735 147.816 35.4589 146.91 35.3006L142.603 34.4443C141.063 34.1536 139.548 33.7297 138.072 33.1771C136.855 32.7328 135.723 32.06 134.73 31.1905C133.833 30.3784 133.137 29.3432 132.705 28.1764C132.223 26.7853 131.994 25.309 132.03 23.8266C131.979 22.3251 132.285 20.8342 132.92 19.4927C133.555 18.1513 134.498 17.0028 135.662 16.1544C136.884 15.2455 138.259 14.5945 139.711 14.2363C141.374 13.8131 143.079 13.6061 144.789 13.6198C147.103 13.6198 149.063 13.8938 150.638 14.4761C152.038 14.9409 153.338 15.6976 154.462 16.7024C155.4 17.5893 156.155 18.6739 156.68 19.8877C157.182 21.0878 157.528 22.3554 157.708 23.6553L152.309 24.5458C151.859 22.525 151.12 21.0522 150.027 20.059C148.934 19.0657 147.231 18.5862 144.853 18.5862C143.718 18.5666 142.585 18.6931 141.479 18.9629C140.693 19.1631 139.95 19.5237 139.293 20.0247C138.776 20.4321 138.367 20.9748 138.104 21.6002C137.873 22.1859 137.753 22.8145 137.751 23.4498C137.751 25.0253 138.136 26.1899 138.94 26.9776C139.743 27.7654 141.157 28.3477 143.182 28.7929L147.842 29.752C151.409 30.4712 154.012 31.67 155.683 33.3483C157.355 35.0266 158.19 37.4927 158.19 40.678C158.201 42.1233 157.939 43.5562 157.419 44.8909C156.897 46.2011 156.08 47.354 155.041 48.2475C153.862 49.2683 152.508 50.036 151.056 50.508C149.254 51.0903 147.378 51.3676 145.496 51.3301C141.189 51.3301 137.783 50.371 135.34 48.4187C132.898 46.4664 131.516 43.4866 131.291 39.445H137.076Z" fill="white"/>
<path d="M26.8891 38.5454H26.5077C25.8519 38.5472 25.2023 38.4102 24.5961 38.1424C23.9899 37.8747 23.4392 37.4813 22.9754 36.985C22.5117 36.4886 22.1442 35.8991 21.8941 35.2502C21.6439 34.6014 21.516 33.9061 21.5176 33.2041V32.7959C21.516 32.0939 21.6439 31.3986 21.8941 30.7498C22.1442 30.1009 22.5117 29.5114 22.9754 29.015C23.4392 28.5187 23.9899 28.1253 24.5961 27.8576C25.2023 27.5898 25.8519 27.4528 26.5077 27.4546H26.8891C27.5449 27.4528 28.1945 27.5898 28.8007 27.8576C29.4069 28.1253 29.9576 28.5187 30.4213 29.015C30.885 29.5114 31.2525 30.1009 31.5027 30.7498C31.7529 31.3986 31.8808 32.0939 31.8792 32.7959V33.2041C31.8808 33.9061 31.7529 34.6014 31.5027 35.2502C31.2525 35.8991 30.885 36.4886 30.4213 36.985C29.9576 37.4813 29.4069 37.8747 28.8007 38.1424C28.1945 38.4102 27.5449 38.5472 26.8891 38.5454ZM26.8891 60.4887H26.5077C25.6211 60.4858 24.75 60.7366 23.9844 61.2151C23.2189 61.6936 22.5867 62.3825 22.1533 63.2103L26.6984 66L31.2435 63.2103C30.8101 62.3825 30.1779 61.6936 29.4124 61.2151C28.6468 60.7366 27.7756 60.4858 26.8891 60.4887ZM53.4286 43.9887H53.2379C52.5821 43.9869 51.9325 44.1238 51.3263 44.3916C50.7201 44.6594 50.1693 45.0527 49.7056 45.5491C49.2419 46.0454 48.8744 46.6349 48.6242 47.2838C48.3741 47.9326 48.2461 48.628 48.2478 49.3299V49.7381C48.2432 50.6449 48.4625 51.5368 48.8835 52.3237L53.4286 49.5V43.9887ZM48.8835 13.7103C48.4663 14.4988 48.2472 15.3897 48.2478 16.2959V16.7041C48.2461 17.406 48.3741 18.1014 48.6242 18.7502C48.8744 19.3991 49.2419 19.9886 49.7056 20.485C50.1693 20.9813 50.7201 21.3747 51.3263 21.6424C51.9325 21.9102 52.5821 22.0472 53.2379 22.0454H53.4286V16.5L48.8835 13.7103ZM26.6984 0L22.1533 2.78969C22.5846 3.62198 23.2155 4.3161 23.9809 4.80048C24.7463 5.28487 25.6185 5.54199 26.5077 5.54536H26.8891C27.7756 5.54822 28.6468 5.29741 29.4124 4.81889C30.1779 4.34038 30.8101 3.65155 31.2435 2.82371L26.6984 0ZM4.54508 13.6763L0 16.5V22.0454H0.190703C0.846477 22.0472 1.49612 21.9102 2.1023 21.6424C2.70848 21.3747 3.25924 20.9813 3.72295 20.485C4.18665 19.9886 4.55415 19.3991 4.80433 18.7502C5.05451 18.1014 5.18244 17.406 5.18076 16.7041V16.2959C5.16999 15.3805 4.95186 14.4816 4.54508 13.6763ZM0.190703 43.9887H0V49.5L4.54508 52.3237C4.96232 51.5352 5.18134 50.6443 5.18076 49.7381V49.3299C5.18244 48.628 5.05451 47.9326 4.80433 47.2838C4.55415 46.6349 4.18665 46.0454 3.72295 45.5491C3.25924 45.0527 2.70848 44.6594 2.1023 44.3916C1.49612 44.1238 0.846477 43.9869 0.190703 43.9887Z" fill="white"/>
</svg>
