<svg width="313" height="66" viewBox="0 0 313 66" fill="none" xmlns="http://www.w3.org/2000/svg">
<path d="M55.4359 20.1026C54.0806 19.2679 52.3185 19.2679 50.8276 20.1026L40.2554 26.5019L33.0717 30.6755L22.4997 37.075C21.1443 37.9097 19.3823 37.9097 17.8913 37.075L9.48782 32.0668C8.13242 31.2321 7.18363 29.7018 7.18363 28.0323V18.1549C7.18363 16.4855 7.99687 14.9552 9.48782 14.1205L17.7558 9.25136C19.1112 8.41665 20.8731 8.41665 22.3642 9.25136L30.6321 14.1205C31.9874 14.9552 32.9362 16.4855 32.9362 18.1549V24.5544L40.1199 20.2417V13.8423C40.1199 12.1728 39.3068 10.6426 37.8157 9.80785L22.4997 0.626033C21.1443 -0.208678 19.3823 -0.208678 17.8913 0.626033L2.30419 9.80785C0.813242 10.6426 0 12.1728 0 13.8423V32.345C0 34.0144 0.813242 35.5447 2.30419 36.3794L17.8913 45.5611C19.2467 46.396 21.0088 46.396 22.4997 45.5611L33.0717 39.3008L40.2554 34.9882L50.8276 28.7279C52.183 27.8933 53.945 27.8933 55.4359 28.7279L63.7038 33.5971C65.0594 34.4318 66.0082 35.9621 66.0082 37.6315V47.5089C66.0082 49.1782 65.1949 50.7086 63.7038 51.5432L55.4359 56.5517C54.0806 57.3863 52.3185 57.3863 50.8276 56.5517L42.5597 51.6825C41.2042 50.8478 40.2554 49.3175 40.2554 47.6479V41.2486L33.0717 45.5611V51.9607C33.0717 53.63 33.885 55.1604 35.3761 55.995L50.9632 65.177C52.3185 66.0117 54.0806 66.0117 55.5714 65.177L71.1587 55.995C72.514 55.1604 73.4628 53.63 73.4628 51.9607V33.4579C73.4628 31.7886 72.6495 30.2583 71.1587 29.4236L55.4359 20.1026Z" fill="white"/>
<path d="M102.081 59.8861V44.5252C103.734 46.6226 106.734 47.7948 110.223 47.7948C119.1 47.7948 125.099 41.4407 125.099 31.7553C125.099 22.0699 119.59 15.7158 110.958 15.7158C106.979 15.7158 103.918 17.1964 102.081 19.6023V16.2093H93.5716V59.8861H102.081ZM109.183 40.3919C104.591 40.3919 101.591 36.9373 101.591 31.7553C101.591 26.5116 104.591 23.057 109.183 23.057C113.651 23.057 116.712 26.5116 116.712 31.7553C116.712 36.9373 113.651 40.3919 109.183 40.3919Z" fill="white"/>
<path d="M144.422 47.7948C153.911 47.7948 160.706 41.0088 160.706 31.7553C160.706 22.5017 153.911 15.7158 144.422 15.7158C134.933 15.7158 128.138 22.5017 128.138 31.7553C128.138 41.0088 134.933 47.7948 144.422 47.7948ZM144.422 40.3919C139.831 40.3919 136.708 36.8756 136.708 31.7553C136.708 26.5733 139.831 23.057 144.422 23.057C149.014 23.057 152.136 26.5733 152.136 31.7553C152.136 36.8756 149.014 40.3919 144.422 40.3919Z" fill="white"/>
<path d="M174.36 47.3008V2.69873H165.851V47.3008H174.36Z" fill="white"/>
<path d="M199.94 16.21L193.512 36.2593L187.023 16.21H178.329L189.532 47.0551L185.002 59.8867H193.144L197.491 47.1785L208.694 16.21H199.94Z" fill="white"/>
<path d="M232.593 19.2939C230.878 17.1347 227.818 15.7158 224.084 15.7158C215.083 15.7158 209.636 22.0699 209.636 31.7553C209.636 41.4407 215.083 47.7948 224.205 47.7948C227.818 47.7948 231.061 46.4376 232.655 44.155V48.2266C232.655 51.126 230.757 53.1618 228.184 53.1618H213.981V59.8861H229.531C236.51 59.8861 241.164 55.6294 241.164 49.1519V16.2093H232.593V19.2939ZM225.552 40.3919C221.022 40.3919 218.022 36.999 218.022 31.7553C218.022 26.5116 221.022 23.057 225.552 23.057C230.144 23.057 233.144 26.5116 233.144 31.7553C233.144 36.999 230.144 40.3919 225.552 40.3919Z" fill="white"/>
<path d="M262.615 47.7948C272.105 47.7948 278.9 41.0088 278.9 31.7553C278.9 22.5017 272.105 15.7158 262.615 15.7158C253.128 15.7158 246.331 22.5017 246.331 31.7553C246.331 41.0088 253.128 47.7948 262.615 47.7948ZM262.615 40.3919C258.024 40.3919 254.902 36.8756 254.902 31.7553C254.902 26.5733 258.024 23.057 262.615 23.057C267.207 23.057 270.329 26.5733 270.329 31.7553C270.329 36.8756 267.207 40.3919 262.615 40.3919Z" fill="white"/>
<path d="M292.126 47.3012V30.2747C292.126 26.2649 294.758 23.3654 298.492 23.3654C302.042 23.3654 304.429 26.0798 304.429 29.8429V47.3012H313V27.9305C313 20.7744 308.47 15.7158 301.491 15.7158C297.267 15.7158 293.839 17.5048 292.126 20.5277V16.2093H283.555V47.3012H292.126Z" fill="white"/>
</svg>
