<svg width="263" height="66" viewBox="0 0 263 66" fill="none" xmlns="http://www.w3.org/2000/svg">
<path d="M110.581 33.0033C110.581 34.2363 110.453 35.4187 110.198 36.5501C109.942 37.6688 109.572 38.7176 109.087 39.6965C108.614 40.6754 108.033 41.578 107.344 42.4043C106.654 43.2179 105.869 43.9362 104.988 44.559L112.017 52.1868H107.765C107.152 52.1868 106.597 52.1042 106.099 51.9388C105.613 51.7737 105.166 51.4684 104.758 51.0236L100.697 46.5613C100.046 46.7394 99.3753 46.8728 98.6857 46.9618C98.0089 47.0509 97.3002 47.0953 96.5595 47.0953C94.4652 47.0953 92.5497 46.7458 90.8131 46.0465C89.0892 45.3345 87.6078 44.3493 86.3692 43.0907C85.1432 41.8323 84.192 40.3448 83.5152 38.6286C82.8383 36.8997 82.4999 35.0245 82.4999 33.0033C82.4999 30.9819 82.8383 29.1131 83.5152 27.3969C84.192 25.6679 85.1432 24.1741 86.3692 22.9157C87.6078 21.6571 89.0892 20.6781 90.8131 19.979C92.5497 19.267 94.4652 18.9111 96.5595 18.9111C98.6537 18.9111 100.563 19.267 102.287 19.979C104.011 20.691 105.486 21.6762 106.711 22.9347C107.937 24.1806 108.889 25.6679 109.566 27.3969C110.242 29.1131 110.581 30.9819 110.581 33.0033ZM105.294 33.0033C105.294 31.4904 105.09 30.1364 104.681 28.9415C104.285 27.7338 103.711 26.7103 102.957 25.8713C102.204 25.0323 101.284 24.3903 100.199 23.9454C99.1263 23.5004 97.9132 23.278 96.5595 23.278C95.2059 23.278 93.9864 23.5004 92.901 23.9454C91.8155 24.3903 90.8897 25.0323 90.1236 25.8713C89.3702 26.7103 88.789 27.7338 88.3805 28.9415C87.9718 30.1364 87.7675 31.4904 87.7675 33.0033C87.7675 34.516 87.9718 35.8763 88.3805 37.0841C88.789 38.279 89.3702 39.296 90.1236 40.1351C90.8897 40.9614 91.8155 41.597 92.901 42.042C93.9864 42.487 95.2059 42.7094 96.5595 42.7094C97.9132 42.7094 99.1263 42.487 100.199 42.042C101.284 41.597 102.204 40.9614 102.957 40.1351C103.711 39.296 104.285 38.279 104.681 37.0841C105.09 35.8763 105.294 34.516 105.294 33.0033Z" fill="white"/>
<path d="M117.182 27.2256V39.6587C117.182 40.8536 117.456 41.7817 118.005 42.4427C118.567 43.091 119.404 43.4152 120.515 43.4152C121.332 43.4152 122.098 43.2373 122.813 42.8813C123.528 42.5127 124.205 42.0104 124.844 41.3748V27.2256H129.575V46.7904H126.683C126.07 46.7904 125.667 46.5045 125.476 45.9323L125.15 44.3687C124.742 44.7755 124.32 45.1505 123.886 45.4937C123.452 45.8244 122.986 46.1103 122.488 46.3519C122.002 46.5807 121.472 46.7588 120.898 46.8858C120.336 47.0257 119.729 47.0955 119.078 47.0955C118.005 47.0955 117.054 46.9177 116.224 46.5616C115.407 46.193 114.717 45.6782 114.155 45.017C113.593 44.356 113.166 43.5741 112.872 42.6716C112.591 41.7563 112.451 40.7519 112.451 39.6587V27.2256H117.182Z" fill="white"/>
<path d="M138.132 27.2259V46.7907H133.401V27.2259H138.132ZM138.841 21.5241C138.841 21.931 138.758 22.3123 138.592 22.6682C138.426 23.0243 138.202 23.3357 137.921 23.6026C137.653 23.8696 137.334 24.0858 136.963 24.2511C136.593 24.4035 136.197 24.4799 135.776 24.4799C135.367 24.4799 134.978 24.4035 134.607 24.2511C134.25 24.0858 133.937 23.8696 133.669 23.6026C133.401 23.3357 133.183 23.0243 133.017 22.6682C132.864 22.3123 132.788 21.931 132.788 21.5241C132.788 21.1047 132.864 20.7105 133.017 20.3419C133.183 19.9731 133.401 19.6553 133.669 19.3884C133.937 19.1214 134.25 18.9117 134.607 18.7591C134.978 18.5939 135.367 18.5112 135.776 18.5112C136.197 18.5112 136.593 18.5939 136.963 18.7591C137.334 18.9117 137.653 19.1214 137.921 19.3884C138.202 19.6553 138.426 19.9731 138.592 20.3419C138.758 20.7105 138.841 21.1047 138.841 21.5241Z" fill="white"/>
<path d="M155.773 31.3635C155.632 31.5414 155.492 31.6813 155.351 31.783C155.224 31.8846 155.032 31.9356 154.777 31.9356C154.534 31.9356 154.298 31.8656 154.068 31.7257C153.838 31.5732 153.564 31.4079 153.244 31.23C152.925 31.0393 152.542 30.874 152.095 30.7342C151.661 30.5816 151.118 30.5054 150.467 30.5054C149.637 30.5054 148.909 30.6578 148.283 30.9631C147.657 31.2555 147.134 31.6813 146.712 32.2407C146.304 32.8 145.997 33.4801 145.793 34.2811C145.589 35.0693 145.487 35.9655 145.487 36.9697C145.487 38.0122 145.595 38.9403 145.812 39.7539C146.042 40.5676 146.368 41.254 146.789 41.8133C147.211 42.3599 147.721 42.7795 148.322 43.0719C148.922 43.3516 149.598 43.4914 150.352 43.4914C151.105 43.4914 151.712 43.4024 152.172 43.2244C152.644 43.0338 153.04 42.8304 153.359 42.6142C153.678 42.3854 153.953 42.1821 154.183 42.004C154.426 41.8133 154.694 41.7179 154.987 41.7179C155.37 41.7179 155.658 41.8641 155.849 42.1567L157.209 43.8728C156.686 44.483 156.117 44.998 155.505 45.4174C154.892 45.8243 154.253 46.1548 153.589 46.409C152.938 46.6506 152.261 46.8222 151.559 46.9238C150.856 47.0256 150.16 47.0765 149.471 47.0765C148.258 47.0765 147.115 46.8539 146.042 46.409C144.969 45.9513 144.031 45.2903 143.226 44.4257C142.435 43.5613 141.803 42.5061 141.33 41.2604C140.87 40.0018 140.64 38.5715 140.64 36.9697C140.64 35.5332 140.845 34.2048 141.253 32.9843C141.675 31.7511 142.288 30.6897 143.092 29.7998C143.897 28.8971 144.893 28.1916 146.08 27.683C147.268 27.1747 148.634 26.9204 150.18 26.9204C151.648 26.9204 152.931 27.1555 154.03 27.626C155.141 28.0962 156.137 28.7701 157.018 29.6472L155.773 31.3635Z" fill="white"/>
<path d="M163.475 18.4536V34.6815H164.357C164.676 34.6815 164.925 34.637 165.104 34.548C165.282 34.4589 165.473 34.2938 165.678 34.0522L170.562 28.0454C170.78 27.7911 171.009 27.5941 171.252 27.4544C171.494 27.3017 171.814 27.2255 172.21 27.2255H176.538L170.428 34.4908C170.212 34.7577 169.988 35.0057 169.758 35.2344C169.527 35.4506 169.28 35.6413 169.011 35.8065C169.28 35.9972 169.516 36.2198 169.721 36.4739C169.923 36.7282 170.128 37.0016 170.333 37.294L176.883 46.7904H172.613C172.242 46.7904 171.928 46.7268 171.674 46.5996C171.418 46.4726 171.189 46.2564 170.984 45.9513L165.985 38.5334C165.794 38.2411 165.602 38.0503 165.411 37.9614C165.218 37.8724 164.931 37.8279 164.548 37.8279H163.475V46.7904H158.744V18.4536H163.475Z" fill="white"/>
<path d="M181.261 19.2163C181.49 19.2163 181.683 19.229 181.835 19.2544C181.988 19.2671 182.124 19.3052 182.237 19.3689C182.366 19.4198 182.487 19.5024 182.602 19.6168C182.716 19.7184 182.845 19.8583 182.985 20.0364L197.523 38.4761C197.472 38.0312 197.434 37.5989 197.409 37.1795C197.396 36.7472 197.389 36.3468 197.389 35.9782V19.2163H201.929V46.7903H199.267C198.858 46.7903 198.52 46.7267 198.251 46.5995C197.983 46.4725 197.721 46.2436 197.465 45.9131L182.985 27.5495C183.023 27.9564 183.049 28.3631 183.061 28.77C183.087 29.164 183.1 29.5263 183.1 29.8568V46.7903H178.56V19.2163H181.261Z" fill="white"/>
<path d="M214.106 26.9204C215.574 26.9204 216.902 27.1555 218.09 27.626C219.29 28.0962 220.313 28.7636 221.154 29.6282C221.998 30.4927 222.649 31.5478 223.108 32.7936C223.568 34.0395 223.798 35.4316 223.798 36.9697C223.798 38.5207 223.568 39.9191 223.108 41.165C222.649 42.4108 221.998 43.4724 221.154 44.3495C220.313 45.2267 219.29 45.9005 218.09 46.3709C216.902 46.8412 215.574 47.0765 214.106 47.0765C212.637 47.0765 211.302 46.8412 210.103 46.3709C208.903 45.9005 207.874 45.2267 207.019 44.3495C206.176 43.4724 205.519 42.4108 205.045 41.165C204.587 39.9191 204.356 38.5207 204.356 36.9697C204.356 35.4316 204.587 34.0395 205.045 32.7936C205.519 31.5478 206.176 30.4927 207.019 29.6282C207.874 28.7636 208.903 28.0962 210.103 27.626C211.302 27.1555 212.637 26.9204 214.106 26.9204ZM214.106 43.4532C215.741 43.4532 216.947 42.9066 217.726 41.8133C218.518 40.72 218.914 39.1182 218.914 37.0078C218.914 34.8977 218.518 33.2894 217.726 32.1834C216.947 31.0774 215.741 30.5243 214.106 30.5243C212.446 30.5243 211.22 31.0837 210.428 32.2026C209.637 33.3085 209.241 34.9104 209.241 37.0078C209.241 39.1055 209.637 40.7073 210.428 41.8133C211.22 42.9066 212.446 43.4532 214.106 43.4532Z" fill="white"/>
<path d="M239.788 46.7904C239.174 46.7904 238.771 46.5044 238.58 45.9322L238.197 44.0444C237.788 44.5021 237.361 44.9153 236.913 45.2839C236.466 45.6525 235.981 45.9705 235.458 46.2374C234.947 46.5044 234.392 46.7077 233.792 46.8476C233.204 47.0001 232.566 47.0765 231.876 47.0765C230.803 47.0765 229.82 46.8539 228.926 46.409C228.033 45.964 227.259 45.322 226.609 44.483C225.971 43.6313 225.472 42.5825 225.114 41.3366C224.769 40.0907 224.598 38.6669 224.598 37.0651C224.598 35.6159 224.796 34.2684 225.192 33.0224C225.588 31.7767 226.155 30.6961 226.896 29.7807C227.637 28.8654 228.525 28.1535 229.558 27.6449C230.592 27.1237 231.755 26.8632 233.044 26.8632C234.143 26.8632 235.082 27.0412 235.861 27.3971C236.639 27.7403 237.336 28.2043 237.948 28.789V18.4536H242.68V46.7904H239.788ZM233.485 43.3389C234.468 43.3389 235.305 43.1354 235.994 42.7287C236.684 42.3218 237.336 41.7433 237.948 40.9934V32.2215C237.412 31.5732 236.824 31.1155 236.186 30.8486C235.56 30.5816 234.884 30.4481 234.156 30.4481C233.44 30.4481 232.79 30.5816 232.203 30.8486C231.627 31.1155 231.135 31.5224 230.728 32.0691C230.332 32.603 230.025 33.2894 229.807 34.1284C229.591 34.9548 229.482 35.9337 229.482 37.0651C229.482 38.2092 229.571 39.1817 229.751 39.9826C229.942 40.7708 230.209 41.4193 230.554 41.9278C230.899 42.4235 231.32 42.7858 231.818 43.0147C232.316 43.2308 232.873 43.3389 233.485 43.3389Z" fill="white"/>
<path d="M254.395 26.9204C255.634 26.9204 256.77 27.1174 257.804 27.5114C258.852 27.9056 259.753 28.484 260.505 29.2467C261.259 29.9968 261.847 30.9248 262.267 32.031C262.69 33.1242 262.899 34.3764 262.899 35.7875C262.899 36.1434 262.881 36.4422 262.843 36.6838C262.817 36.9126 262.759 37.0969 262.67 37.2367C262.594 37.3639 262.485 37.4593 262.345 37.5228C262.205 37.5736 262.025 37.599 261.809 37.599H249.665C249.805 39.6077 250.348 41.0823 251.292 42.0232C252.237 42.9638 253.488 43.4343 255.047 43.4343C255.813 43.4343 256.471 43.3452 257.019 43.1673C257.581 42.9893 258.066 42.7922 258.476 42.5761C258.896 42.3599 259.261 42.1629 259.566 41.9849C259.886 41.807 260.193 41.7179 260.487 41.7179C260.678 41.7179 260.843 41.7562 260.984 41.8324C261.126 41.9087 261.246 42.0167 261.348 42.1567L262.728 43.8728C262.205 44.483 261.617 44.998 260.966 45.4174C260.314 45.8243 259.631 46.1548 258.916 46.409C258.213 46.6506 257.492 46.8222 256.751 46.9238C256.024 47.0256 255.314 47.0765 254.625 47.0765C253.258 47.0765 251.988 46.8539 250.813 46.409C249.638 45.9513 248.617 45.2839 247.749 44.4068C246.879 43.5169 246.196 42.4236 245.698 41.1269C245.201 39.8175 244.952 38.3046 244.952 36.5884C244.952 35.2536 245.168 34.0014 245.602 32.8317C246.038 31.6495 246.657 30.6261 247.462 29.7617C248.279 28.8844 249.269 28.1916 250.43 27.683C251.605 27.1747 252.927 26.9204 254.395 26.9204ZM254.491 30.2956C253.112 30.2956 252.032 30.6834 251.254 31.4587C250.475 32.2342 249.977 33.334 249.76 34.7577H258.647C258.647 34.1476 258.565 33.5755 258.398 33.0416C258.233 32.4949 257.977 32.0181 257.633 31.6114C257.288 31.2045 256.854 30.8867 256.329 30.6578C255.806 30.4164 255.194 30.2956 254.491 30.2956Z" fill="white"/>
<path fill-rule="evenodd" clip-rule="evenodd" d="M33 53.625C38.6027 53.625 43.6835 51.3909 47.4007 47.7652C47.5025 47.6657 47.6657 47.6657 47.7663 47.7664L56.3346 56.3345L65.2278 65.2276C65.4201 65.42 65.222 65.7406 64.9639 65.6545L50.7713 60.9236C50.6979 60.8992 50.6172 60.9091 50.5517 60.9503C45.4679 64.1494 39.45 66 33 66C14.7746 66 0 51.2254 0 33C0 14.7746 14.7746 0 33 0C51.2254 0 65.9999 14.7746 65.9999 33C65.9999 40.7844 63.3047 47.9391 58.7964 53.5821C58.701 53.7016 58.5231 53.7106 58.4151 53.6026L40.9909 36.1784C40.7985 35.986 40.9967 35.6654 41.2547 35.7516L52.3272 39.4424C52.4624 39.4873 52.6086 39.4144 52.6518 39.2788C53.2839 37.2991 53.625 35.1894 53.625 33C53.625 21.6091 44.3909 12.375 33 12.375C21.609 12.375 12.375 21.6091 12.375 33C12.375 44.3908 21.609 53.625 33 53.625Z" fill="white"/>
</svg>
