<svg viewBox="0 0 1440 931" fill="none" xmlns="http://www.w3.org/2000/svg">
<g style="mix-blend-mode:screen">
<path d="M1439.24 930.985H-9.99976V490.477C-4.18274 487.774 1.90173 485.546 8.28711 483.939C67.5272 468.927 126.667 509.252 140.374 573.977C143.583 589.025 143.985 604.111 142.046 618.539C148.966 617.589 155.853 617.553 162.539 618.283C160.332 614.119 158.661 609.553 157.591 604.659C151.975 578.141 167.085 551.696 191.323 545.559C215.594 539.423 239.798 555.933 245.415 582.414C247.855 593.92 246.384 605.389 241.971 615.215C245.014 613.717 248.223 612.512 251.633 611.635C279.281 604.622 306.862 623.433 313.281 653.641C314.685 660.252 314.952 666.9 314.217 673.255C315.219 672.963 316.222 672.671 317.259 672.415C344.238 665.585 371.217 674.862 389.738 694.44C403.879 689.4 419.625 689.619 434.469 696.23C438.146 697.874 441.589 699.846 444.832 702.111C445.167 701.015 445.534 699.956 445.936 698.897C457.336 668.434 489.196 653.86 517.044 666.315C544.892 678.771 558.265 713.58 546.831 744.007C544.357 750.582 540.947 756.426 536.835 761.393C551.545 754.49 568.695 753.796 584.675 760.918C603.296 769.246 616.167 786.341 621.015 806.065C642.177 789.957 670.159 785.537 695.801 797.007C696.77 797.445 697.706 797.92 698.676 798.395C698.876 791.966 700.113 785.501 702.487 779.182C713.252 750.508 743.24 736.738 769.483 748.499C772.693 749.924 775.701 751.677 778.476 753.723C775.568 743.24 775.802 731.661 779.88 720.739C789.308 695.573 815.652 683.519 838.686 693.82C861.72 704.12 872.752 732.903 863.325 758.069C861.586 762.745 859.246 766.945 856.471 770.671C863.224 771.109 869.978 772.351 876.664 774.506C876.864 759.932 879.505 745.139 884.854 730.821C907.889 669.347 972.177 639.907 1028.44 665.073C1066.92 682.277 1091.69 720.593 1096.14 762.745C1105.87 738.71 1131.14 726.803 1153.98 736.081C1177.71 745.724 1189.78 774.579 1180.92 800.476C1179.02 806.065 1176.27 811.069 1172.93 815.379C1185.13 809.133 1199.51 808.037 1213.12 813.589C1228.96 820.018 1240.23 834.044 1244.78 850.445C1262.16 836.272 1285.56 831.743 1307.39 840.619C1308.23 840.948 1309.03 841.313 1309.83 841.678C1309.83 836.272 1310.74 830.793 1312.54 825.424C1320.86 800.988 1345.74 788.569 1368.1 797.664C1370.84 798.76 1373.42 800.148 1375.79 801.791C1373.08 793.062 1372.98 783.346 1376.16 774.031C1383.48 752.59 1405.28 741.706 1424.9 749.668C1430.52 751.97 1435.33 755.586 1439.18 760.042V930.949L1439.24 930.985Z" fill="url(#paint0_linear_118_644)"/>
</g>
<g style="mix-blend-mode:screen">
<path d="M1102.9 544.349L1125.38 527.9L1123.51 516.41L1092.5 539.095L1102.9 544.349Z" fill="url(#paint1_linear_118_644)"/>
<path d="M980.442 513.267C979.116 496.818 984.054 480.982 995.037 465.957C1014.3 483.487 1033.19 499.273 1048.92 511.892C1039.8 527.924 1032.63 561.117 1070.54 616.897C1071.15 617.806 1071.05 619.009 1070.27 619.795C1070.17 619.893 1070.1 619.966 1070 620.04C1069.24 620.605 1068.2 620.629 1067.39 620.114C999.017 575.431 982.359 537.352 980.442 513.292V513.267Z" fill="url(#paint2_linear_118_644)"/>
<path d="M1132.68 401.829C1117.39 395.618 1100.78 395.519 1083.12 401.461C1094.03 425.079 1103.39 447.862 1110.69 466.644C1128.72 462.79 1162.58 465.957 1204.34 518.914C1205.01 519.773 1206.21 520.018 1207.17 519.527C1207.29 519.478 1207.39 519.405 1207.49 519.331C1208.25 518.766 1208.6 517.809 1208.35 516.876C1186.34 438.238 1155.03 410.913 1132.65 401.805L1132.68 401.829Z" fill="url(#paint3_linear_118_644)"/>
<path d="M882.558 220.224C883.196 220.248 941.574 212.588 1006.86 278.508C1072.14 344.428 1127.59 512.775 1127.79 513.291L1088.23 542.237C1087.81 541.893 943.883 438.287 900.69 356.213C857.472 274.138 882.386 220.838 882.558 220.224Z" fill="url(#paint4_linear_118_644)"/>
<path d="M882.558 220.224C883.123 220.224 927.422 214.48 981.941 256.437C968.207 269.4 953.072 282.069 936.684 294.05C920.296 306.055 903.663 316.661 887.152 325.819C863.565 261.225 882.435 220.765 882.582 220.224H882.558Z" fill="url(#paint5_linear_118_644)"/>
<path d="M944.043 364.509C930.314 350.143 930.839 327.376 945.215 313.657C959.592 299.938 982.377 300.463 996.106 314.829C1009.83 329.195 1009.31 351.962 994.933 365.681C980.556 379.4 957.772 378.875 944.043 364.509Z" fill="url(#paint6_linear_118_644)"/>
<path d="M944.571 358.324C954.915 372.417 974.718 375.486 988.821 365.149C1002.92 354.838 1005.97 335.025 995.651 320.933C985.332 306.84 965.504 303.772 951.401 314.108C937.298 324.419 934.227 344.232 944.571 358.324Z" fill="url(#paint7_linear_118_644)"/>
<path style="mix-blend-mode:multiply" opacity="0.7" d="M938.478 338.462C938.772 344.281 940.689 350.075 944.374 355.108C954.423 368.808 973.686 371.778 987.396 361.737C1000.74 351.965 1003.88 333.478 994.766 319.853C995.037 320.196 995.332 320.515 995.602 320.884C1005.92 334.976 1002.87 354.764 988.771 365.1C974.669 375.412 954.866 372.367 944.522 358.275C940.148 352.309 938.207 345.312 938.453 338.462H938.478Z" fill="url(#paint8_linear_118_644)"/>
<path opacity="0.5" d="M944.178 341.458C943.736 340.378 943.49 339.175 943.392 338.217C943.17 335.738 943.539 333.012 944.915 330.901C946.094 329.084 948.084 328.47 949.337 330.533C950.713 332.841 948.527 335.86 949.043 338.438C949.239 339.469 949.657 340.451 949.731 341.507C949.927 343.938 947.888 345.239 945.849 343.815C945.111 343.299 944.546 342.415 944.153 341.458H944.178Z" fill="#79678D"/>
<path d="M942.753 339.15C942.507 338.094 942.483 336.99 942.556 336.106C942.728 333.823 943.49 331.441 945.062 329.747C946.414 328.299 948.306 328.053 949.092 330.091C949.976 332.374 947.544 334.78 947.618 337.162C947.642 338.119 947.863 339.077 947.765 340.034C947.568 342.268 945.529 343.127 943.932 341.507C943.342 340.918 942.974 340.059 942.777 339.126L942.753 339.15Z" fill="#79678D"/>
<path opacity="0.5" d="M975.209 312.488C976.167 312.488 977.199 312.66 978.01 312.881C980.148 313.495 982.457 314.649 984.251 316.466C985.774 318.012 986.216 319.854 984.398 320.197C982.383 320.59 979.853 317.841 977.617 317.423C976.733 317.251 975.873 317.276 974.963 317.006C972.875 316.392 971.819 314.305 973.121 313.102C973.588 312.66 974.374 312.488 975.185 312.464L975.209 312.488Z" fill="#79678D"/>
<path d="M974.84 312.193C975.381 312.119 975.995 312.144 976.487 312.193C977.764 312.389 979.189 312.905 980.344 313.813C981.327 314.599 981.72 315.606 980.713 315.949C979.582 316.318 977.912 314.918 976.61 314.844C976.094 314.82 975.578 314.894 975.037 314.795C973.784 314.599 973.022 313.47 973.686 312.684C973.931 312.389 974.349 312.242 974.84 312.168V312.193Z" fill="#79678D"/>
<path opacity="0.5" d="M946.979 350.469C947.421 351.083 948.305 351.23 948.92 350.764C949.534 350.322 949.681 349.438 949.214 348.824C948.748 348.21 947.888 348.063 947.273 348.529C946.659 348.971 946.512 349.855 946.979 350.469Z" fill="#79678D"/>
<path opacity="0.5" d="M967.199 314.207C967.543 314.698 968.231 314.796 968.698 314.428C969.19 314.084 969.288 313.397 968.919 312.93C968.575 312.439 967.887 312.341 967.421 312.709C966.929 313.053 966.831 313.74 967.199 314.207Z" fill="#79678D"/>
<path d="M946.807 349.609C947.151 350.075 947.814 350.173 948.281 349.83C948.748 349.486 948.846 348.823 948.502 348.357C948.158 347.89 947.495 347.792 947.028 348.136C946.561 348.479 946.463 349.142 946.807 349.609Z" fill="#79678D"/>
<path d="M967.347 313.667C967.593 313.986 968.035 314.059 968.379 313.814C968.723 313.568 968.772 313.126 968.526 312.783C968.281 312.464 967.838 312.39 967.494 312.635C967.175 312.881 967.101 313.323 967.347 313.667Z" fill="#79678D"/>
<path d="M1137.56 570.57L1140.49 568.434L1074.2 459.034L1045.82 424.073L1028.38 436.84L1053.17 474.428L1137.56 570.57Z" fill="url(#paint9_linear_118_644)"/>
<path opacity="0.3" d="M1102.9 544.349L1125.38 527.899C1125.38 527.899 1181.69 541.697 1222.5 682.424L1221.08 683.48C1099.11 602.167 1102.92 544.349 1102.92 544.349H1102.9Z" fill="url(#paint10_linear_118_644)"/>
<path d="M1102.9 544.349L1125.38 527.899C1125.38 527.899 1160.24 540.347 1188.4 637.447C1104.25 581.347 1102.9 544.349 1102.9 544.349Z" fill="url(#paint11_linear_118_644)"/>
</g>
<g style="mix-blend-mode:screen">
<path d="M-9.99988 613.994C-7.76001 613.393 -5.48657 612.892 -3.17981 612.491C40.3811 604.974 81.8024 634.205 89.291 677.733C91.0294 687.855 90.762 697.877 88.8229 707.398C93.8711 707.03 98.8857 707.298 103.733 708.099C102.296 705.26 101.226 702.153 100.658 698.846C97.5819 681.007 109.55 664.07 127.403 660.997C145.255 657.923 162.204 669.883 165.28 687.722C166.617 695.438 165.113 703.022 161.536 709.369C163.809 708.5 166.183 707.832 168.69 707.398C189.016 703.89 208.34 717.52 211.85 737.831C212.619 742.274 212.552 746.684 211.783 750.893C212.519 750.726 213.254 750.592 214.023 750.458C233.881 747.051 253.104 754.3 265.808 768.097C276.272 765.358 287.705 766.126 298.203 771.137C300.811 772.373 303.251 773.843 305.491 775.48C305.792 774.778 306.093 774.077 306.427 773.375C315.855 753.632 339.524 745.28 359.282 754.701C379.04 764.122 387.397 787.773 377.97 807.516C375.93 811.792 373.223 815.5 370.047 818.64C380.979 814.665 393.448 814.899 404.815 820.311C418.02 826.625 426.713 838.484 429.487 851.779C445.468 841.958 465.927 840.187 484.114 848.873C484.816 849.207 485.485 849.541 486.153 849.909C486.555 845.666 487.691 841.39 489.63 837.315C498.523 818.707 520.822 810.823 539.443 819.71C541.716 820.812 543.822 822.081 545.761 823.551C544.056 816.469 544.658 808.786 548.035 801.704C555.824 785.368 575.415 778.453 591.729 786.27C608.077 794.053 614.997 813.63 607.174 829.932C605.737 832.972 603.865 835.644 601.725 838.016C606.606 838.584 611.454 839.686 616.234 841.39C616.936 831.702 619.41 822.015 623.823 812.728C642.879 772.874 690.652 755.97 730.569 775.012C757.849 788.04 774.364 814.498 776.002 842.66C783.992 827.092 802.781 820.244 818.995 827.36C835.844 834.742 843.533 854.385 836.112 871.255C834.507 874.897 832.334 878.104 829.76 880.81C838.853 877.168 849.317 877.035 859.012 881.277C870.279 886.221 877.901 895.976 880.575 907.067C893.747 898.381 910.897 896.343 926.41 903.158C927.011 903.425 927.58 903.693 928.148 903.96C928.382 900.385 929.218 896.778 930.756 893.303C937.709 877.435 956.264 870.22 972.144 877.168C974.083 878.037 975.888 879.039 977.559 880.208C975.921 874.329 976.222 867.848 978.863 861.801C984.981 847.871 1001.23 841.524 1015.17 847.637C1029.11 853.75 1035.46 869.986 1029.34 883.916C1028.21 886.489 1026.74 888.827 1024.96 890.865C1029.08 891.199 1033.19 892.001 1037.27 893.303C1037.6 885.152 1039.41 876.934 1042.88 869.017C1057.83 835.01 1097.51 819.542 1131.54 834.442C1156.08 845.198 1170.89 868.817 1171.69 893.938C1179.15 887.758 1188.71 884.05 1199.14 884.05C1222.91 884.05 1242.2 903.292 1242.2 927.077C1242.2 928.413 1242.13 929.716 1242 931.019H-9.99988V614.027V613.994Z" fill="url(#paint12_linear_118_644)"/>
</g>
<g style="mix-blend-mode:soft-light" opacity="0.45">
<path d="M565.073 419.125C569.692 419.125 573.437 415.383 573.437 410.767C573.437 406.15 569.692 402.408 565.073 402.408C560.453 402.408 556.708 406.15 556.708 410.767C556.708 415.383 560.453 419.125 565.073 419.125Z" fill="white"/>
</g>
<g style="mix-blend-mode:soft-light" opacity="0.45">
<path d="M666.358 284.067C666.358 291.744 660.113 297.985 652.43 297.985C644.746 297.985 638.501 291.744 638.501 284.067C638.501 276.389 644.746 270.148 652.43 270.148C660.113 270.148 666.358 276.389 666.358 284.067Z" fill="white"/>
</g>
<g style="mix-blend-mode:soft-light" opacity="0.45">
<path d="M353.305 140.686C357.924 140.686 361.669 136.944 361.669 132.327C361.669 127.711 357.924 123.969 353.305 123.969C348.685 123.969 344.94 127.711 344.94 132.327C344.94 136.944 348.685 140.686 353.305 140.686Z" fill="white"/>
</g>
<g style="mix-blend-mode:soft-light" opacity="0.45">
<path d="M613.785 219.505C613.785 224.119 610.038 227.863 605.42 227.863C600.803 227.863 597.056 224.119 597.056 219.505C597.056 214.891 600.803 211.146 605.42 211.146C610.038 211.146 613.785 214.891 613.785 219.505Z" fill="white"/>
</g>
<g style="mix-blend-mode:soft-light" opacity="0.45">
<path d="M1385.42 497.681C1390.04 497.681 1393.79 493.939 1393.79 489.322C1393.79 484.706 1390.04 480.964 1385.42 480.964C1380.8 480.964 1377.06 484.706 1377.06 489.322C1377.06 493.939 1380.8 497.681 1385.42 497.681Z" fill="white"/>
</g>
<g style="mix-blend-mode:soft-light" opacity="0.45">
<path d="M1241.1 569.918C1241.1 577.596 1234.86 583.836 1227.17 583.836C1219.49 583.836 1213.25 577.596 1213.25 569.918C1213.25 562.241 1219.49 556 1227.17 556C1234.86 556 1241.1 562.241 1241.1 569.918Z" fill="white"/>
</g>
<g style="mix-blend-mode:soft-light" opacity="0.45">
<path d="M703.716 742.648C703.716 747.262 699.968 751.007 695.351 751.007C690.733 751.007 686.986 747.262 686.986 742.648C686.986 738.034 690.733 734.29 695.351 734.29C699.968 734.29 703.716 738.034 703.716 742.648Z" fill="white"/>
</g>
<g style="mix-blend-mode:soft-light" opacity="0.45">
<path d="M1159.16 132.327C1159.16 135.088 1156.93 137.32 1154.16 137.32C1151.4 137.32 1149.17 135.088 1149.17 132.327C1149.17 129.566 1151.4 127.335 1154.16 127.335C1156.93 127.335 1159.16 129.566 1159.16 132.327Z" fill="white"/>
</g>
<g style="mix-blend-mode:soft-light" opacity="0.45">
<path d="M1100.95 85.8081C1108.64 85.8081 1114.88 79.5767 1114.88 71.8899C1114.88 64.2031 1108.64 57.9717 1100.95 57.9717C1093.25 57.9717 1087.02 64.2031 1087.02 71.8899C1087.02 79.5767 1093.25 85.8081 1100.95 85.8081Z" fill="white"/>
</g>
<g style="mix-blend-mode:soft-light" opacity="0.45">
<path d="M1390.42 5.39962C1390.42 8.16057 1388.19 10.392 1385.42 10.392C1382.66 10.392 1380.43 8.16057 1380.43 5.39962C1380.43 2.63868 1382.66 0.407227 1385.42 0.407227C1388.19 0.407227 1390.42 2.63868 1390.42 5.39962Z" fill="white"/>
</g>
<g style="mix-blend-mode:soft-light" opacity="0.45">
<path d="M1345.15 578.277C1349.77 578.277 1353.52 574.534 1353.52 569.918C1353.52 565.302 1349.77 561.56 1345.15 561.56C1340.53 561.56 1336.79 565.302 1336.79 569.918C1336.79 574.534 1340.53 578.277 1345.15 578.277Z" fill="white"/>
</g>
<defs>
<linearGradient id="paint0_linear_118_644" x1="731.672" y1="605.061" x2="644.583" y2="1057.1" gradientUnits="userSpaceOnUse">
<stop stop-color="#826DD6"/>
<stop offset="0.05" stop-color="#8165CD"/>
<stop offset="0.33" stop-color="#81409E"/>
<stop offset="0.55" stop-color="#812880"/>
<stop offset="0.68" stop-color="#812076"/>
<stop offset="0.74" stop-color="#731E6E"/>
<stop offset="1" stop-color="#3A184C"/>
</linearGradient>
<linearGradient id="paint1_linear_118_644" x1="1126.36" y1="520.86" x2="1095.36" y2="543.585" gradientUnits="userSpaceOnUse">
<stop stop-color="#673266"/>
<stop offset="0.08" stop-color="#72356D"/>
<stop offset="0.22" stop-color="#903E82"/>
<stop offset="0.38" stop-color="#BA4B9E"/>
<stop offset="0.45" stop-color="#BE53A1"/>
<stop offset="0.55" stop-color="#CA6AAA"/>
<stop offset="0.68" stop-color="#DD8FBA"/>
<stop offset="0.83" stop-color="#F8C2CF"/>
<stop offset="0.87" stop-color="#FFCFD5"/>
<stop offset="0.91" stop-color="#FFD5DA"/>
<stop offset="0.98" stop-color="#FFE8EB"/>
<stop offset="1" stop-color="#FFF0F2"/>
</linearGradient>
<linearGradient id="paint2_linear_118_644" x1="1057.81" y1="524.595" x2="1002.87" y2="564.862" gradientUnits="userSpaceOnUse">
<stop stop-color="#A31562"/>
<stop offset="0.2" stop-color="#BF1768"/>
<stop offset="0.49" stop-color="#E41970"/>
<stop offset="0.65" stop-color="#F21B74"/>
<stop offset="0.67" stop-color="#F3276F"/>
<stop offset="0.82" stop-color="#FB6657"/>
<stop offset="0.89" stop-color="#FF7F4E"/>
<stop offset="0.91" stop-color="#FF8452"/>
<stop offset="0.93" stop-color="#FF9260"/>
<stop offset="0.96" stop-color="#FFAB77"/>
<stop offset="0.98" stop-color="#FFCD97"/>
<stop offset="1" stop-color="#FFE3AC"/>
</linearGradient>
<linearGradient id="paint3_linear_118_644" x1="1188.1" y1="448.229" x2="1103.6" y2="472.831" gradientUnits="userSpaceOnUse">
<stop stop-color="#FF7F4E"/>
<stop offset="0.1" stop-color="#FB6657"/>
<stop offset="0.31" stop-color="#F3276F"/>
<stop offset="0.35" stop-color="#F21B74"/>
<stop offset="0.47" stop-color="#E31A71"/>
<stop offset="0.68" stop-color="#BF186C"/>
<stop offset="0.96" stop-color="#831563"/>
<stop offset="1" stop-color="#7C1562"/>
</linearGradient>
<linearGradient id="paint4_linear_118_644" x1="1049.91" y1="334.118" x2="940.255" y2="414.492" gradientUnits="userSpaceOnUse">
<stop stop-color="#F21B74"/>
<stop offset="0.04" stop-color="#DB196E"/>
<stop offset="0.11" stop-color="#BC1667"/>
<stop offset="0.17" stop-color="#A91563"/>
<stop offset="0.21" stop-color="#A31562"/>
<stop offset="0.38" stop-color="#991562"/>
<stop offset="0.45" stop-color="#9F1563"/>
<stop offset="0.53" stop-color="#B01666"/>
<stop offset="0.63" stop-color="#CC186C"/>
<stop offset="0.73" stop-color="#F21B74"/>
<stop offset="0.75" stop-color="#F3266D"/>
<stop offset="0.8" stop-color="#F5455B"/>
<stop offset="0.86" stop-color="#FA773E"/>
<stop offset="0.92" stop-color="#FFAD1F"/>
<stop offset="0.93" stop-color="#FFAE24"/>
<stop offset="0.94" stop-color="#FFB432"/>
<stop offset="0.96" stop-color="#FFBE4B"/>
<stop offset="0.98" stop-color="#FFCB6D"/>
<stop offset="0.99" stop-color="#FFDB99"/>
<stop offset="1" stop-color="#FFE3AC"/>
</linearGradient>
<linearGradient id="paint5_linear_118_644" x1="982.379" y1="262.636" x2="875.33" y2="274.326" gradientUnits="userSpaceOnUse">
<stop stop-color="#673266"/>
<stop offset="0.08" stop-color="#72356D"/>
<stop offset="0.22" stop-color="#903E82"/>
<stop offset="0.38" stop-color="#BA4B9E"/>
<stop offset="0.45" stop-color="#BE53A1"/>
<stop offset="0.55" stop-color="#CA6AAA"/>
<stop offset="0.68" stop-color="#DD8FBA"/>
<stop offset="0.83" stop-color="#F8C2CF"/>
<stop offset="0.87" stop-color="#FFCFD5"/>
<stop offset="0.91" stop-color="#FFD5DA"/>
<stop offset="0.98" stop-color="#FFE8EB"/>
<stop offset="1" stop-color="#FFF0F2"/>
</linearGradient>
<linearGradient id="paint6_linear_118_644" x1="1005.18" y1="345.493" x2="934.018" y2="334.476" gradientUnits="userSpaceOnUse">
<stop offset="0.14" stop-color="#372345"/>
<stop offset="0.25" stop-color="#3B2447"/>
<stop offset="0.35" stop-color="#47274F"/>
<stop offset="0.46" stop-color="#5B2E5D"/>
<stop offset="0.56" stop-color="#773670"/>
<stop offset="0.67" stop-color="#9B4189"/>
<stop offset="0.74" stop-color="#BA4B9E"/>
<stop offset="0.78" stop-color="#BE53A1"/>
<stop offset="0.83" stop-color="#CA6AAA"/>
<stop offset="0.9" stop-color="#DD8FBA"/>
<stop offset="0.98" stop-color="#F8C2CF"/>
<stop offset="1" stop-color="#FFCFD5"/>
</linearGradient>
<linearGradient id="paint7_linear_118_644" x1="995.42" y1="321.229" x2="944.366" y2="358.65" gradientUnits="userSpaceOnUse">
<stop stop-color="#79678D"/>
<stop offset="0.04" stop-color="#5B4C74"/>
<stop offset="0.08" stop-color="#3F335D"/>
<stop offset="0.13" stop-color="#2A204C"/>
<stop offset="0.19" stop-color="#1B123F"/>
<stop offset="0.25" stop-color="#120A38"/>
<stop offset="0.35" stop-color="#100836"/>
<stop offset="0.5" stop-color="#130A38"/>
<stop offset="0.62" stop-color="#1D1441"/>
<stop offset="0.74" stop-color="#2E234F"/>
<stop offset="0.84" stop-color="#463962"/>
<stop offset="0.94" stop-color="#64547C"/>
<stop offset="1" stop-color="#79678D"/>
</linearGradient>
<linearGradient id="paint8_linear_118_644" x1="998.948" y1="326.042" x2="947.894" y2="363.463" gradientUnits="userSpaceOnUse">
<stop stop-color="#79678D"/>
<stop offset="0.04" stop-color="#5B4C74"/>
<stop offset="0.08" stop-color="#3F335D"/>
<stop offset="0.13" stop-color="#2A204C"/>
<stop offset="0.19" stop-color="#1B123F"/>
<stop offset="0.25" stop-color="#120A38"/>
<stop offset="0.35" stop-color="#100836"/>
<stop offset="0.5" stop-color="#130A38"/>
<stop offset="0.62" stop-color="#1D1441"/>
<stop offset="0.74" stop-color="#2E234F"/>
<stop offset="0.84" stop-color="#463962"/>
<stop offset="0.94" stop-color="#64547C"/>
<stop offset="1" stop-color="#79678D"/>
</linearGradient>
<linearGradient id="paint9_linear_118_644" x1="1098.35" y1="492.577" x2="1077.33" y2="507.984" gradientUnits="userSpaceOnUse">
<stop offset="0.31" stop-color="#B71666"/>
<stop offset="0.42" stop-color="#C51769"/>
<stop offset="0.62" stop-color="#EB1A72"/>
<stop offset="0.65" stop-color="#F21B74"/>
<stop offset="0.69" stop-color="#F5336A"/>
<stop offset="0.76" stop-color="#FA5C5B"/>
<stop offset="0.82" stop-color="#FD7551"/>
<stop offset="0.86" stop-color="#FF7F4E"/>
<stop offset="0.88" stop-color="#FF8856"/>
<stop offset="0.92" stop-color="#FFA16E"/>
<stop offset="0.97" stop-color="#FFC993"/>
<stop offset="1" stop-color="#FFE3AC"/>
</linearGradient>
<linearGradient id="paint10_linear_118_644" x1="1221.54" y1="683.244" x2="1114.01" y2="536.32" gradientUnits="userSpaceOnUse">
<stop stop-color="#FFFFD5"/>
<stop offset="0.18" stop-color="#FEF4C0"/>
<stop offset="0.54" stop-color="#FED88B"/>
<stop offset="0.64" stop-color="#FED07C"/>
<stop offset="0.7" stop-color="#FECA79"/>
<stop offset="0.79" stop-color="#FEB973"/>
<stop offset="0.88" stop-color="#FE9D69"/>
<stop offset="0.98" stop-color="#FE775C"/>
<stop offset="1" stop-color="#FF6F59"/>
</linearGradient>
<linearGradient id="paint11_linear_118_644" x1="1188.18" y1="637.729" x2="1113.98" y2="536.344" gradientUnits="userSpaceOnUse">
<stop stop-color="#FFFFD5"/>
<stop offset="0.18" stop-color="#FEF4C0"/>
<stop offset="0.54" stop-color="#FED88B"/>
<stop offset="0.64" stop-color="#FED07C"/>
<stop offset="0.7" stop-color="#FECA79"/>
<stop offset="0.79" stop-color="#FEB973"/>
<stop offset="0.88" stop-color="#FE9D69"/>
<stop offset="0.98" stop-color="#FE775C"/>
<stop offset="1" stop-color="#FF6F59"/>
</linearGradient>
<linearGradient id="paint12_linear_118_644" x1="625.528" y1="718.455" x2="570.08" y2="1033.19" gradientUnits="userSpaceOnUse">
<stop stop-color="#826DD6"/>
<stop offset="0.05" stop-color="#8165CD"/>
<stop offset="0.33" stop-color="#81409E"/>
<stop offset="0.55" stop-color="#812880"/>
<stop offset="0.68" stop-color="#812076"/>
<stop offset="0.74" stop-color="#731E6E"/>
<stop offset="1" stop-color="#3A184C"/>
</linearGradient>
</defs>
</svg>
