<svg width="10" height="18" viewBox="0 0 10 18" fill="none" xmlns="http://www.w3.org/2000/svg">
<path d="M9.34 11.94C9.34 12.58 9.18 13.1933 8.86 13.78C8.54 14.3533 8.06667 14.8333 7.44 15.22C6.82667 15.6067 6.08667 15.8267 5.22 15.88V17.5H4.14V15.88C2.92667 15.7733 1.94 15.3867 1.18 14.72C0.42 14.04 0.0333333 13.18 0.02 12.14H1.96C2.01333 12.7 2.22 13.1867 2.58 13.6C2.95333 14.0133 3.47333 14.2733 4.14 14.38V9.38C3.24667 9.15333 2.52667 8.92 1.98 8.68C1.43333 8.44 0.966667 8.06667 0.58 7.56C0.193333 7.05333 0 6.37333 0 5.52C0 4.44 0.373333 3.54667 1.12 2.84C1.88 2.13333 2.88667 1.74 4.14 1.66V0H5.22V1.66C6.35333 1.75333 7.26667 2.12 7.96 2.76C8.65333 3.38667 9.05334 4.20667 9.16 5.22H7.22C7.15333 4.75333 6.94667 4.33333 6.6 3.96C6.25333 3.57333 5.79333 3.32 5.22 3.2V8.08C6.1 8.30667 6.81333 8.54 7.36 8.78C7.92 9.00667 8.38667 9.37333 8.76 9.88C9.14667 10.3867 9.34 11.0733 9.34 11.94ZM1.86 5.42C1.86 6.07333 2.05333 6.57333 2.44 6.92C2.82667 7.26667 3.39333 7.55333 4.14 7.78V3.16C3.44667 3.22667 2.89333 3.45333 2.48 3.84C2.06667 4.21333 1.86 4.74 1.86 5.42ZM5.22 14.4C5.94 14.32 6.5 14.06 6.9 13.62C7.31333 13.18 7.52 12.6533 7.52 12.04C7.52 11.3867 7.32 10.8867 6.92 10.54C6.52 10.18 5.95333 9.89333 5.22 9.68V14.4Z" fill="white"/>
</svg>
