<svg width="10" height="8" viewBox="0 0 10 8" fill="none" xmlns="http://www.w3.org/2000/svg">
<path d="M9.12272 4C9.12272 6.04603 7.26305 7.75 4.90999 7.75C2.55693 7.75 0.697266 6.04603 0.697266 4C0.697266 1.95397 2.55693 0.25 4.90999 0.25C7.26305 0.25 9.12272 1.95397 9.12272 4Z" stroke="white" stroke-opacity="0.5" stroke-width="0.5"/>
<path d="M4.40252 6.33344V2.69915H5.13695V6.33344H4.40252ZM4.76974 1.99972C4.62693 1.99972 4.50707 1.95858 4.41017 1.87629C4.31836 1.79401 4.27246 1.69344 4.27246 1.57458C4.27246 1.45115 4.31836 1.34829 4.41017 1.26601C4.50707 1.18372 4.62693 1.14258 4.76974 1.14258C4.91254 1.14258 5.02985 1.18372 5.12165 1.26601C5.21856 1.34372 5.26701 1.44201 5.26701 1.56086C5.26701 1.68429 5.22111 1.78944 5.1293 1.87629C5.0375 1.95858 4.91764 1.99972 4.76974 1.99972Z" fill="white" fill-opacity="0.5"/>
</svg>
