<svg width="203" height="58" viewBox="0 0 203 58" fill="none" xmlns="http://www.w3.org/2000/svg">
<path d="M82.5439 20.2459C83.9004 20.9964 84.9624 22.0553 85.7356 23.4226C86.5069 24.7918 86.8926 26.3685 86.8926 28.1546C86.8926 29.9408 86.5069 31.5252 85.7356 32.9041C84.9643 34.283 83.9004 35.3477 82.5439 36.0982C81.1873 36.8488 79.6505 37.2231 77.9296 37.2231C75.5479 37.2231 73.6623 36.4279 72.2747 34.8396V43.4116H68.1411V19.317H72.0771V21.6345C72.7612 20.7967 73.6042 20.1664 74.608 19.7475C75.6119 19.3286 76.7184 19.1191 77.9316 19.1191C79.6505 19.1191 81.1892 19.4954 82.5458 20.244L82.5439 20.2459ZM81.2203 32.1613C82.2008 31.1471 82.6911 29.8108 82.6911 28.1566C82.6911 26.5023 82.2008 25.1661 81.2203 24.1518C80.2397 23.1375 78.9877 22.6294 77.4665 22.6294C76.4742 22.6294 75.5809 22.8563 74.7882 23.3082C73.9937 23.76 73.3658 24.4058 72.9026 25.2436C72.4395 26.0834 72.2088 27.0531 72.2088 28.1566C72.2088 29.2601 72.4395 30.2317 72.9026 31.0695C73.3658 31.9092 73.9937 32.5531 74.7882 33.005C75.5828 33.4568 76.4742 33.6837 77.4665 33.6837C78.9877 33.6837 80.2397 33.1756 81.2203 32.1613Z" fill="white"/>
<path d="M93.939 36.0653C92.5049 35.2934 91.3867 34.2171 90.5825 32.8382C89.7782 31.4593 89.3751 29.8981 89.3751 28.1546C89.3751 26.4112 89.7763 24.8558 90.5825 23.4885C91.3867 22.1213 92.5068 21.0508 93.939 20.2789C95.3711 19.507 96.9815 19.1211 98.7683 19.1211C100.555 19.1211 102.197 19.507 103.631 20.2789C105.063 21.0508 106.183 22.1213 106.987 23.4885C107.791 24.8577 108.194 26.4131 108.194 28.1546C108.194 29.8962 107.791 31.4593 106.987 32.8382C106.183 34.2171 105.063 35.2934 103.631 36.0653C102.197 36.8372 100.576 37.2231 98.7683 37.2231C96.9602 37.2231 95.373 36.8372 93.939 36.0653ZM102.538 32.1594C103.53 31.1451 104.026 29.8089 104.026 28.1546C104.026 26.5004 103.53 25.1641 102.538 24.1499C101.545 23.1356 100.29 22.6275 98.7664 22.6275C97.2431 22.6275 95.9932 23.1356 95.0126 24.1499C94.032 25.1661 93.5417 26.5004 93.5417 28.1546C93.5417 29.8089 94.032 31.1451 95.0126 32.1594C95.9932 33.1737 97.2451 33.6818 98.7664 33.6818C100.288 33.6818 101.545 33.1737 102.538 32.1594Z" fill="white"/>
<path d="M129.459 12.4336V36.9917H125.49V34.7072C124.806 35.5469 123.963 36.1753 122.96 36.5942C121.956 37.0131 120.847 37.2225 119.636 37.2225C117.938 37.2225 116.411 36.8482 115.055 36.0977C113.698 35.3471 112.634 34.2824 111.863 32.9036C111.092 31.5247 110.706 29.9421 110.706 28.1541C110.706 26.366 111.092 24.7893 111.863 23.422C112.634 22.0548 113.698 20.9959 115.055 20.2453C116.411 19.4948 117.936 19.1205 119.636 19.1205C120.805 19.1205 121.874 19.3183 122.843 19.7159C123.814 20.1135 124.64 20.7088 125.324 21.504V12.4355H129.457L129.459 12.4336ZM122.812 33.0044C123.607 32.5525 124.235 31.9067 124.698 31.0689C125.161 30.2311 125.392 29.2595 125.392 28.156C125.392 27.0525 125.161 26.0828 124.698 25.2431C124.235 24.4053 123.607 23.7595 122.812 23.3076C122.018 22.8557 121.126 22.6288 120.134 22.6288C119.142 22.6288 118.248 22.8557 117.456 23.3076C116.661 23.7595 116.033 24.4053 115.57 25.2431C115.107 26.0828 114.876 27.0525 114.876 28.156C114.876 29.2595 115.107 30.2311 115.57 31.0689C116.033 31.9087 116.661 32.5525 117.456 33.0044C118.25 33.4563 119.142 33.6832 120.134 33.6832C121.126 33.6832 122.02 33.4563 122.812 33.0044Z" fill="white"/>
<path d="M136.139 36.6606C134.771 36.2863 133.68 35.8112 132.864 35.2371L134.451 32.0934C135.246 32.6229 136.199 33.0476 137.312 33.3676C138.424 33.6876 139.523 33.8466 140.602 33.8466C143.071 33.8466 144.306 33.1969 144.306 31.8937C144.306 31.277 143.992 30.8464 143.364 30.6021C142.736 30.3596 141.726 30.1269 140.337 29.9078C138.882 29.6867 137.696 29.4326 136.781 29.1456C135.866 28.8586 135.072 28.3563 134.399 27.6387C133.727 26.9212 133.389 25.9243 133.389 24.6444C133.389 22.9668 134.089 21.6267 135.49 20.6221C136.889 19.6175 138.781 19.1152 141.163 19.1152C142.376 19.1152 143.587 19.2529 144.8 19.5283C146.013 19.8037 147.005 20.1741 147.777 20.6376L146.19 23.7813C144.69 22.8989 143.004 22.4568 141.13 22.4568C139.916 22.4568 138.996 22.6391 138.368 23.0037C137.74 23.3682 137.426 23.8473 137.426 24.4427C137.426 25.104 137.761 25.5733 138.436 25.8487C139.108 26.1241 140.151 26.384 141.562 26.6264C142.973 26.8475 144.129 27.1015 145.035 27.3885C145.938 27.6756 146.715 28.1604 147.366 28.845C148.015 29.5296 148.341 30.4993 148.341 31.7579C148.341 33.4122 147.624 34.7368 146.191 35.7297C144.757 36.7227 142.806 37.2192 140.337 37.2192C138.903 37.2192 137.504 37.031 136.137 36.6568L136.139 36.6606Z" fill="white"/>
<path d="M167.294 21.0715C168.639 22.3728 169.311 24.3044 169.311 26.8644V36.9917H165.177V27.3938C165.177 25.8501 164.813 24.6865 164.086 23.903C163.36 23.1195 162.323 22.7277 160.978 22.7277C159.457 22.7277 158.255 23.1854 157.373 24.1008C156.492 25.0162 156.05 26.3349 156.05 28.0551V36.9917H151.916V12.4336H156.05V21.3702C156.734 20.6429 157.577 20.0844 158.581 19.6984C159.585 19.3125 160.703 19.1186 161.937 19.1186C164.164 19.1186 165.951 19.7702 167.296 21.0715H167.294Z" fill="white"/>
<path d="M174.768 15.6935C174.261 15.2183 174.007 14.6287 174.007 13.9228C174.007 13.2169 174.261 12.6273 174.768 12.1522C175.276 11.677 175.904 11.4404 176.654 11.4404C177.404 11.4404 178.032 11.6673 178.54 12.1192C179.047 12.5711 179.301 13.1393 179.301 13.8239C179.301 14.5512 179.053 15.164 178.557 15.6605C178.061 16.157 177.427 16.4052 176.656 16.4052C175.885 16.4052 175.278 16.1686 174.77 15.6935H174.768ZM174.571 19.3181H178.704V36.9915H174.571V19.3181Z" fill="white"/>
<path d="M198.531 20.2459C199.888 20.9964 200.952 22.0553 201.723 23.4226C202.494 24.7918 202.88 26.3685 202.88 28.1546C202.88 29.9408 202.494 31.5252 201.723 32.9041C200.952 34.283 199.888 35.3477 198.531 36.0982C197.175 36.8488 195.638 37.2231 193.917 37.2231C191.535 37.2231 189.65 36.4279 188.262 34.8396V43.4116H184.129V19.317H188.064V21.6345C188.747 20.7967 189.592 20.1664 190.595 19.7475C191.599 19.3286 192.706 19.1191 193.919 19.1191C195.638 19.1191 197.177 19.4954 198.533 20.244L198.531 20.2459ZM197.208 32.1613C198.188 31.1471 198.679 29.8108 198.679 28.1566C198.679 26.5023 198.188 25.1661 197.208 24.1518C196.227 23.1375 194.975 22.6294 193.454 22.6294C192.462 22.6294 191.568 22.8563 190.776 23.3082C189.981 23.76 189.353 24.4058 188.89 25.2436C188.427 26.0834 188.196 27.0531 188.196 28.1566C188.196 29.2601 188.427 30.2317 188.89 31.0695C189.353 31.9092 189.981 32.5531 190.776 33.005C191.57 33.4568 192.462 33.6837 193.454 33.6837C194.975 33.6837 196.227 33.1756 197.208 32.1613Z" fill="white"/>
<path fill-rule="evenodd" clip-rule="evenodd" d="M55.7467 13.9062C55.7467 7.27883 50.3741 1.90625 43.7467 1.90625H12.449C5.82156 1.90625 0.448975 7.27883 0.448975 13.9062V45.204C0.448975 51.8314 5.82156 57.204 12.449 57.204H43.7467C50.3741 57.204 55.7467 51.8314 55.7467 45.204V13.9062ZM12.3803 33.296C12.7079 33.4235 13.0472 33.139 12.9734 32.7962C12.9732 32.7955 12.9728 32.7948 12.9722 32.7942C12.9717 32.7936 12.9713 32.7929 12.9711 32.7922C12.3075 29.7269 12.8923 26.4262 14.8024 23.7071C15.6464 22.5062 16.5634 21.3478 17.5569 20.2387C17.7488 20.023 17.4972 19.7034 17.2424 19.8392C12.0884 22.6167 5.99721 27.0556 4.13767 29.3639C3.92709 29.6255 4.03091 30.0146 4.34531 30.1388L12.3803 33.296ZM24.8914 44.7151C24.8914 44.7141 24.8907 44.7133 24.8897 44.7131C24.5472 44.6396 24.2631 44.9787 24.3904 45.3062L27.546 53.3429C27.6701 53.6573 28.0593 53.7611 28.3209 53.5506C30.6292 51.691 35.068 45.5998 37.8456 40.4459C37.9814 40.191 37.6618 39.9394 37.4461 40.1313C36.337 41.1248 35.1786 42.0419 33.9777 42.8858C31.2587 44.7958 27.9582 45.3807 24.8931 44.7172C24.8921 44.717 24.8914 44.7161 24.8914 44.7151ZM49.3733 8.31469C49.4372 8.37856 49.4795 8.47066 49.4821 8.56963C49.4822 8.57149 49.4807 8.57301 49.4788 8.57301C49.4769 8.57301 49.4754 8.57456 49.4755 8.57643C49.7646 18.8416 45.8423 28.7802 38.5689 36.0774L38.5248 36.1216C36.9555 37.6909 35.2756 39.1021 33.4972 40.3502C29.5088 43.1486 24.2754 43.1021 20.3577 40.4514C19.7288 40.0263 19.6485 39.124 20.1869 38.5856L21.9889 36.7836C22.1554 36.6172 22.4204 36.6003 22.6057 36.7448C25.3151 38.8394 29.2197 38.6474 31.7027 36.1644C32.8489 35.0182 32.8489 33.1598 31.7027 32.0135L29.561 29.8718C29.2191 29.5299 29.2191 28.9755 29.561 28.6336C29.9029 28.2917 30.4572 28.2917 30.7991 28.6336L34.4422 32.2768C34.7593 32.5938 35.2733 32.5938 35.5903 32.2768C35.9074 31.9597 35.9074 31.4457 35.5903 31.1287L31.9472 27.4855C31.6053 27.1436 31.6053 26.5893 31.9472 26.2474C32.2891 25.9055 32.8434 25.9055 33.1853 26.2474L36.8285 29.8905C37.1455 30.2076 37.6595 30.2076 37.9766 29.8905C38.2936 29.5735 38.2936 29.0595 37.9766 28.7424L34.3334 25.0993C33.9915 24.7574 33.9915 24.2031 34.3334 23.8612C34.6753 23.5193 35.2297 23.5193 35.5716 23.8612L38.4606 26.7502C39.1941 27.4837 40.3834 27.4837 41.1169 26.7502C43.853 24.0141 43.9054 19.4842 41.1141 16.7983C41.1046 16.7896 41.0951 16.7807 41.0857 16.7717L41.0555 16.743C41.0359 16.7243 41.0164 16.7056 40.9969 16.6878C40.9628 16.647 40.9238 16.6079 40.8864 16.5705C38.2021 13.781 33.6705 13.8316 30.9344 16.5677L21.5236 25.9785C19.0406 28.4616 18.8469 32.3678 20.9432 35.0755C21.0877 35.2608 21.0708 35.5258 20.9044 35.6923L19.1024 37.4943C18.5623 38.0344 17.6634 37.9541 17.2366 37.3235C14.5859 33.4058 14.5394 28.1724 17.3378 24.184C18.5842 22.4073 19.9954 20.7274 21.5665 19.1564L21.6106 19.1123C28.9086 11.8381 38.8486 7.91578 49.115 8.20583C49.2153 8.20758 49.3087 8.2501 49.3733 8.31469ZM18.9777 43.8845L10.2842 47.6103C9.85605 47.7938 9.43169 47.3438 9.64 46.9271L13.7682 38.6707C13.7804 38.6464 13.8147 38.6455 13.8281 38.6691C15.0544 40.8151 16.8352 42.5976 18.9812 43.8239C19.0055 43.8378 19.0035 43.8735 18.9777 43.8845Z" fill="white"/>
<path d="M56.4539 0.352964H55.7466V0H57.5896V0.352964H56.8822V2.34663H56.4559V0.352964H56.4539Z" fill="white"/>
<path d="M57.8064 0H58.223L59.0079 1.71827L59.7928 0H60.2094V2.34663H59.8063V0.822289L59.1087 2.34663H58.9071L58.2095 0.822289V2.34663H57.8064V0Z" fill="white"/>
</svg>
